<svg xmlns="http://www.w3.org/2000/svg" width="512" height="512" viewBox="0 0 512 512" version="1.1">
	<path d="M 216.279 65.002 C 184.800 67.633, 164.452 76.561, 142.177 97.515 C 131.133 107.905, 130.998 108.218, 136.262 111.327 C 146.952 117.640, 151.202 125.660, 151.809 140.660 C 152.291 152.580, 150.767 158.476, 145.736 164.148 C 143.956 166.155, 136.088 173.264, 128.250 179.946 C 114.624 191.563, 111.608 195.385, 115.250 196.417 C 115.938 196.612, 118.401 197.288, 120.724 197.918 C 126.053 199.365, 129.733 203.992, 131.926 212.002 L 133.543 217.912 152.022 203.871 C 180.022 182.596, 191.103 175.443, 194.825 176.242 C 195.887 176.469, 194.791 177.372, 191.830 178.709 C 185.728 181.463, 177.636 186.960, 160.500 199.993 C 152.800 205.849, 141.887 213.891, 136.250 217.865 C 130.613 221.839, 126 225.287, 126 225.528 C 126 225.769, 128.194 227.078, 130.875 228.437 C 133.557 229.796, 136.032 231.640, 136.375 232.535 C 137.576 235.665, 136.984 240.560, 134.944 244.366 L 132.887 248.203 136.869 251.879 C 139.058 253.900, 141.125 256.667, 141.461 258.027 C 141.797 259.387, 141.944 290.917, 141.786 328.093 L 141.500 395.686 137.746 403.093 C 134.414 409.665, 133.992 411.330, 133.996 417.863 L 134 425.227 131 424.787 L 128 424.346 128 432.027 L 128 439.707 135.250 440.918 C 139.237 441.584, 155.775 444.201, 172 446.733 L 201.500 451.338 228.500 451.176 C 254.683 451.019, 255.553 450.950, 257.250 448.896 C 258.212 447.731, 259 445.928, 259 444.889 C 259 443.278, 259.772 442.999, 264.250 442.992 C 267.137 442.987, 278.950 442.314, 290.500 441.495 C 302.050 440.677, 318.337 439.712, 326.693 439.351 L 341.887 438.694 343.624 442.337 C 344.579 444.341, 346.067 446.202, 346.930 446.474 C 347.794 446.745, 354.350 446.538, 361.500 446.013 C 368.650 445.488, 379.957 445.045, 386.628 445.029 C 395.772 445.007, 399.041 444.656, 399.916 443.601 C 400.666 442.698, 400.975 438.886, 400.789 432.851 L 400.500 423.500 396.187 423.189 L 391.873 422.879 392.572 414.866 L 393.271 406.854 386.099 392.677 C 382.155 384.880, 378.041 375.350, 376.957 371.500 C 373.560 359.430, 372.463 343.966, 373.817 327.226 C 375.209 310.005, 376.491 303.494, 382.115 285.088 C 390.441 257.840, 391.786 245.283, 387.971 230.410 C 386.426 224.383, 386.201 222.015, 387.027 220.462 C 387.871 218.875, 387.657 217.365, 386.055 213.629 C 383.668 208.061, 383.387 201.321, 385.419 198.418 C 386.200 197.304, 388.879 195.103, 391.371 193.527 C 396.521 190.272, 401.363 184.055, 403.527 177.923 C 406.670 169.016, 404.548 153.755, 398.741 143.500 C 396.749 139.983, 395.632 139.225, 389.488 137.225 C 374.454 132.331, 374.138 132.158, 373.033 128.178 C 371.781 123.670, 371.746 116.800, 372.949 111.614 C 373.991 107.123, 380.284 100.152, 386.750 96.325 C 389.087 94.942, 391 93.233, 391 92.528 C 391 88.694, 349.670 77.501, 311.707 71.054 C 280.340 65.727, 238.989 63.105, 216.279 65.002 M 203 85.629 C 186.956 90.254, 167.680 101.207, 158.573 110.873 C 153.793 115.946, 156.490 115.647, 162.211 110.469 C 173.622 100.142, 187.504 92.724, 204.500 87.871 C 213.707 85.242, 213.672 85.259, 212.433 84.073 C 211.881 83.544, 208.033 84.178, 203 85.629 M 237.686 91.665 C 234.553 91.958, 233.010 92.531, 233.267 93.307 C 233.549 94.159, 240.079 94.676, 256.081 95.114 C 288.098 95.991, 309.539 98.974, 338.675 106.604 C 346.279 108.596, 353.387 110.323, 354.472 110.443 C 355.886 110.600, 356.669 111.743, 357.238 114.482 C 357.674 116.583, 357.802 118.531, 357.523 118.811 C 357.243 119.091, 353.073 118.125, 348.257 116.666 C 318.926 107.776, 268.085 101.707, 238.643 103.580 C 226.453 104.356, 226.042 104.166, 226.015 97.750 C 226 94.064, 225.933 94, 222.125 94 C 218.654 94, 218.190 94.301, 217.673 96.883 C 217.356 98.469, 217.362 102.924, 217.685 106.784 L 218.274 113.803 243.387 113.811 C 280.003 113.823, 310.309 117.295, 345.462 125.505 C 353.691 127.427, 360.796 129, 361.250 129 C 361.704 129, 361.946 124.864, 361.788 119.809 L 361.500 110.618 355.916 108.376 C 341.751 102.688, 315.102 96.495, 291.500 93.406 C 280.318 91.943, 246.451 90.847, 237.686 91.665 M 227 125.141 C 227 125.377, 227.980 128.254, 229.178 131.535 C 231.904 139.001, 232.228 155.073, 229.787 161.750 L 228.234 166 233.539 166 C 238.771 166, 238.863 165.948, 240.153 162.250 C 241.599 158.106, 241.947 141.001, 240.726 134.172 C 240.048 130.385, 240.167 129.885, 241.672 130.175 C 242.618 130.357, 244.316 132.080, 245.446 134.003 C 247.166 136.931, 247.500 139.209, 247.500 148 C 247.500 157.092, 247.199 159.010, 245.251 162.305 L 243.003 166.109 247.724 165.805 C 252.282 165.511, 252.488 165.361, 253.646 161.500 C 255.202 156.316, 255.315 141.902, 253.857 134.643 C 253.229 131.513, 252.939 128.727, 253.214 128.453 C 254.409 127.258, 257.253 129.561, 259.293 133.373 C 261.217 136.971, 261.500 139.037, 261.500 149.500 C 261.500 159.108, 261.146 162.148, 259.724 164.750 L 257.949 168 260.363 168 C 261.692 168, 270.816 168.477, 280.639 169.059 C 304.205 170.457, 325.237 173.114, 348.675 177.655 C 370.215 181.828, 369.778 181.884, 373.137 174.500 C 376.850 166.335, 374.755 150.069, 369.199 143.940 C 366.911 141.417, 364.792 140.581, 355.296 138.459 C 338.672 134.744, 316.997 131.235, 300.300 129.555 C 276.254 127.135, 227 124.169, 227 125.141 M 186.805 137.027 C 179.453 139.557, 172.188 143.855, 163.682 150.705 C 155.447 157.338, 155.422 158.928, 163.651 152.724 C 171.621 146.715, 181.115 141.670, 189.500 138.990 C 193.350 137.759, 196.928 136.358, 197.450 135.876 C 199.155 134.303, 192.688 135.002, 186.805 137.027 M 281.426 144.750 C 281.467 149.012, 281.130 153.673, 280.677 155.108 L 279.855 157.715 289.677 158.403 C 302.353 159.290, 330.850 163.369, 343.566 166.116 C 357.504 169.127, 358.151 169.102, 359.210 165.500 C 360.216 162.078, 359.457 152.722, 357.944 149.895 C 357.386 148.853, 356.067 148, 355.012 148 C 353.958 148, 345.311 146.441, 335.797 144.536 C 322.785 141.931, 287.583 137.007, 281.926 137.001 C 281.610 137, 281.385 140.488, 281.426 144.750 M 286.499 147.002 C 285.724 148.255, 290.152 150, 294.106 150 C 298.153 150, 331.869 154.792, 340.315 156.567 C 348.233 158.232, 351 158.364, 351 157.078 C 351 154.988, 333.062 151.450, 305.057 148.016 C 285.819 145.657, 287.281 145.737, 286.499 147.002 M 189.490 199.327 C 187.284 201.072, 184.134 203.542, 182.490 204.815 C 178.504 207.901, 181.194 206.408, 188.266 201.608 C 191.420 199.468, 194 197.331, 194 196.858 C 194 195.731, 194.114 195.668, 189.490 199.327 M 344 201.026 C 348.645 203.552, 353.056 207.491, 356.956 212.598 C 357.417 213.201, 361.553 214.011, 366.147 214.397 C 374.300 215.081, 374.554 215.036, 376.750 212.493 C 379.376 209.453, 379.571 207.714, 377.515 205.657 C 375.878 204.021, 371.166 202.870, 354.151 199.949 C 338.601 197.279, 337.351 197.412, 344 201.026 M 219 201.644 C 218.175 201.911, 215.588 202.813, 213.250 203.647 L 209 205.165 209 210.964 C 209 214.732, 208.112 219.120, 206.465 223.497 L 203.930 230.232 204.215 306.866 L 204.500 383.500 207 388.500 C 210.746 395.992, 215.146 395.484, 212.947 387.814 C 211.599 383.113, 211.683 220.460, 213.035 217.934 C 214.256 215.652, 217.544 215.368, 218.352 217.475 C 218.663 218.286, 218.965 255.974, 219.022 301.225 C 219.140 394.162, 219.885 384.711, 210.895 404.227 C 208.640 409.123, 206.959 413.292, 207.159 413.492 C 207.359 413.692, 210.442 413.248, 214.011 412.504 C 237.470 407.618, 267.914 403.592, 297.500 401.462 C 333.303 398.885, 343.561 395.719, 348.402 385.751 C 353.846 374.545, 354.454 368.808, 354.366 329.500 C 354.322 309.700, 353.745 287.650, 353.084 280.500 C 351.926 267.972, 347.531 235.614, 346.429 231.500 C 345.069 226.424, 340.714 214.953, 340.303 215.364 C 340.050 215.617, 341.009 219.056, 342.434 223.007 C 346.654 234.705, 347.381 248.591, 347.444 318.665 C 347.475 353.406, 347.124 382.206, 346.664 382.665 C 345.028 384.299, 342.165 378.898, 341.145 372.251 C 340.542 368.322, 339.914 336.034, 339.642 295 C 339.385 256.225, 338.880 223.761, 338.521 222.857 C 338.162 221.953, 335.310 220.080, 332.184 218.695 C 312.017 209.759, 280.252 205.183, 246.500 206.354 C 236.600 206.697, 227.262 207.260, 225.750 207.606 C 223.141 208.201, 223 208.047, 223 204.617 C 223 201.036, 222.355 200.557, 219 201.644 M 221.667 223.667 C 221.300 224.033, 221 225.451, 221 226.816 L 221 229.299 230.204 228.646 C 239.757 227.968, 241.681 227.218, 240.664 224.567 C 240.181 223.307, 238.324 223, 231.198 223 C 226.322 223, 222.033 223.300, 221.667 223.667 M 274.586 224.860 C 273.630 226.408, 275.067 226.871, 284.112 227.924 C 288.725 228.461, 300.375 229.823, 310 230.949 C 319.625 232.075, 329.611 232.998, 332.191 232.999 C 337.215 233, 339.576 231.392, 335.791 230.547 C 333.322 229.995, 300.972 226.464, 289.500 225.493 C 285.650 225.167, 280.859 224.666, 278.853 224.380 C 276.847 224.093, 274.927 224.310, 274.586 224.860 M 363 225.841 C 363 226.304, 363.644 228.821, 364.431 231.435 C 367.831 242.735, 367.234 258.623, 363.040 268.407 L 361.015 273.130 363.258 272.461 C 367.417 271.221, 373.856 267.011, 375.823 264.246 C 378.992 259.792, 381 251.294, 381 242.339 C 381 232.715, 379.027 226.510, 375.681 225.612 C 372.355 224.720, 363 224.889, 363 225.841 M 244.750 228.562 C 244.338 228.986, 244 230.337, 244 231.563 C 244 233.609, 244.725 233.893, 252.750 234.994 C 266.141 236.832, 265.459 236.916, 265.803 233.386 C 266.069 230.652, 265.752 230.200, 263.206 229.691 C 257.449 228.540, 245.483 227.808, 244.750 228.562 M 230 231.190 C 219.439 232.502, 218.755 234, 228.718 234 C 233.183 234, 237.548 233.727, 238.418 233.393 C 240.286 232.676, 240.564 229.942, 238.750 230.129 C 238.063 230.200, 234.125 230.677, 230 231.190 M 167.500 240.101 C 158.969 245.346, 154.556 248.643, 154.663 249.692 C 154.753 250.571, 155.156 282.275, 155.559 320.145 L 156.292 389 158.896 388.936 C 160.328 388.901, 166 388.081, 171.500 387.115 L 181.500 385.358 181.756 308.679 C 181.897 266.505, 181.672 232.025, 181.256 232.055 C 180.840 232.085, 174.650 235.706, 167.500 240.101 M 297.730 234.603 C 297.329 235.005, 297 236.318, 297 237.522 C 297 239.495, 297.667 239.774, 303.750 240.348 C 307.462 240.699, 313.344 240.989, 316.820 240.993 C 322.796 241, 323.122 240.878, 322.820 238.759 C 322.559 236.933, 321.666 236.401, 318 235.889 C 308.315 234.535, 298.426 233.907, 297.730 234.603 M 225.750 235.735 C 221.515 236.069, 221 236.368, 221 238.496 C 221 239.808, 221.368 241.110, 221.818 241.388 C 222.269 241.666, 226.769 241.626, 231.818 241.299 C 241.354 240.681, 242.701 239.844, 239.429 236.571 C 237.880 235.022, 236.138 234.916, 225.750 235.735 M 276.637 237.696 C 276.287 238.047, 276 238.933, 276 239.667 C 276 240.605, 277.554 241.007, 281.250 241.024 C 284.137 241.037, 288.188 241.440, 290.250 241.919 C 293.560 242.687, 294 242.569, 294 240.914 C 294 239.770, 293.122 238.861, 291.750 238.583 C 287.193 237.662, 277.255 237.079, 276.637 237.696 M 245.159 239.588 C 245.533 241.531, 250.950 242.912, 263.750 244.326 C 268.735 244.877, 269 244.789, 269 242.596 C 269 240.476, 268.449 240.235, 262.250 239.643 C 258.538 239.289, 253.091 238.706, 250.148 238.348 C 245.260 237.754, 244.827 237.861, 245.159 239.588 M 324 240.375 C 324 241.131, 325.406 242.031, 327.125 242.375 C 332.051 243.360, 333 243.138, 333 241 C 333 239.296, 332.333 239, 328.500 239 C 325.348 239, 324 239.412, 324 240.375 M 227.500 243.655 C 226.400 243.888, 224.488 244.294, 223.250 244.558 C 222.012 244.822, 221 245.648, 221 246.394 C 221 247.472, 222.891 247.648, 230.250 247.256 C 239.576 246.759, 241.785 246.079, 240.554 244.087 C 239.910 243.045, 231.675 242.772, 227.500 243.655 M 244 247.829 L 244 251.793 252.750 252.933 C 257.563 253.559, 262.512 254.218, 263.750 254.397 C 265.283 254.619, 266.004 254.209, 266.014 253.111 C 266.021 252.225, 266.283 250.548, 266.595 249.384 C 267.131 247.388, 266.605 247.200, 257.332 246.074 C 251.924 245.418, 246.713 244.652, 245.750 244.373 C 244.292 243.950, 244 244.527, 244 247.829 M 277 245.313 C 277 247.027, 281.212 248, 288.625 248 C 293.080 248, 293.999 247.701, 293.993 246.250 C 293.987 244.746, 292.792 244.456, 285.493 244.188 C 278.632 243.936, 277 244.153, 277 245.313 M 297.750 244.561 C 297.337 244.986, 297 246.581, 297 248.105 C 297 250.611, 297.409 250.932, 301.250 251.445 C 311.938 252.872, 326.058 253.915, 327.452 253.380 C 329.617 252.549, 328.347 251, 325.500 251 C 324.190 251, 322.818 250.515, 322.452 249.923 C 321.999 249.189, 323.653 248.932, 327.640 249.116 C 332.259 249.330, 333.557 249.063, 333.790 247.850 C 334.038 246.564, 332.150 246.207, 322.293 245.672 C 315.807 245.321, 307.800 244.753, 304.500 244.411 C 301.200 244.069, 298.163 244.137, 297.750 244.561 M 224.750 251.162 C 221.428 252.375, 221.141 254.003, 224.250 253.993 C 231.822 253.969, 240 252.600, 240 251.355 C 240 249.717, 229.085 249.579, 224.750 251.162 M 277 252.362 C 277 253.353, 279.351 253.916, 285.606 254.423 C 290.339 254.807, 294.445 254.889, 294.729 254.604 C 295.014 254.319, 294.981 253.392, 294.655 252.543 C 293.840 250.420, 277 250.248, 277 252.362 M 223.750 255.716 C 222.238 255.945, 221 256.553, 221 257.066 C 221 257.582, 225.474 258, 231 258 C 239.222 258, 241 257.733, 241 256.500 C 241 255.291, 239.594 255.029, 233.750 255.150 C 229.762 255.232, 225.262 255.487, 223.750 255.716 M 297.667 255.667 C 296.074 257.260, 297.435 257.837, 304.250 258.455 C 308.238 258.817, 315.022 259.564, 319.327 260.115 C 325.151 260.860, 327.519 260.814, 328.577 259.936 C 329.360 259.286, 330 258.443, 330 258.062 C 330 257.680, 324.262 256.833, 317.250 256.179 C 302.737 254.826, 298.616 254.718, 297.667 255.667 M 245 257.412 C 245 259.391, 246.921 259.884, 257.536 260.630 C 264.732 261.136, 267 261.635, 267 262.715 C 267 263.589, 266.328 263.944, 265.250 263.639 C 264.288 263.366, 259.337 262.838, 254.250 262.465 C 246.327 261.885, 245 262.007, 245 263.314 C 245 265.144, 247.437 265.677, 259.813 266.559 L 269.126 267.222 268.813 262.861 L 268.500 258.500 261 257.802 C 256.875 257.418, 251.588 256.864, 249.250 256.571 C 246.054 256.170, 245 256.379, 245 257.412 M 285.250 256.744 C 278.037 257.039, 277 257.312, 277 258.915 C 277 261.102, 280.531 262, 289.125 262 C 294.986 262, 295 261.993, 295 259 C 295 257.350, 294.663 256.092, 294.250 256.204 C 293.837 256.315, 289.788 256.559, 285.250 256.744 M 224 260.895 C 219.976 262.014, 220.853 264.509, 225.250 264.450 C 239.796 264.256, 241 264.069, 241 262 C 241 260.175, 240.367 260.009, 233.750 260.100 C 229.762 260.155, 225.375 260.512, 224 260.895 M 297 263.847 L 297 266.694 308.250 267.343 C 323.818 268.240, 329.782 268.161, 330.469 267.050 C 331.627 265.176, 326.363 263.678, 314.035 262.372 C 296.477 260.513, 297 260.467, 297 263.847 M 277 266.397 C 277 268.511, 277.723 268.760, 285 269.151 C 290.950 269.470, 291.500 269.331, 291.500 267.500 C 291.500 265.711, 290.735 265.469, 284.250 265.206 C 278.373 264.968, 277 265.194, 277 266.397 M 224.250 267.706 C 221.433 268.248, 221.344 269.657, 224.071 270.523 C 227.043 271.466, 237.538 270.067, 239.682 268.441 C 241.275 267.234, 240.571 267.077, 234 267.168 C 229.875 267.225, 225.488 267.467, 224.250 267.706 M 244 271.762 C 244 275.534, 245.165 276, 254.582 276 L 262 276 262 273 C 262 270.049, 261.914 270, 256.750 269.989 C 253.863 269.983, 249.813 269.699, 247.750 269.358 C 244.107 268.756, 244 268.824, 244 271.762 M 294.495 270.008 C 294.152 270.563, 294.135 271.851, 294.458 272.869 C 295.157 275.070, 301.866 276, 317.040 276 C 326.792 276, 328 275.559, 328 271.998 C 328 270.392, 295.453 268.458, 294.495 270.008 M 223.166 274.062 C 218.515 275.926, 221.378 277.490, 229.997 277.793 C 239.821 278.139, 241.027 277.819, 240.306 275.061 C 239.823 273.215, 239.024 273.007, 232.633 273.063 C 228.710 273.098, 224.450 273.548, 223.166 274.062 M 277 274.956 C 277 276.835, 277.613 277, 284.573 277 C 291.247 277, 292.107 276.792, 291.813 275.250 C 291.538 273.809, 290.200 273.448, 284.239 273.206 C 277.519 272.933, 277 273.059, 277 274.956 M 245 281.353 L 245 284.707 252.651 285.353 C 256.859 285.709, 262.484 286, 265.151 286 C 269.997 286, 270 285.998, 270 282.607 C 270 280.435, 269.431 278.995, 268.418 278.607 C 267.548 278.273, 261.923 278, 255.918 278 L 245 278 245 281.353 M 295 279.025 C 295 281.080, 300.396 282, 312.451 282 C 321.257 282, 325.568 282.413, 327.564 283.449 C 330.393 284.917, 332.510 284.635, 331.457 282.931 C 331.141 282.419, 329.784 282, 328.441 282 C 327.021 282, 326 281.417, 326 280.607 C 326 279.841, 325.288 278.941, 324.418 278.607 C 321.627 277.536, 295 277.914, 295 279.025 M 278 281.386 C 278 283.025, 285.023 284.282, 289.477 283.441 C 293.021 282.772, 293.409 282.471, 292.541 281.067 C 291.500 279.382, 278 279.679, 278 281.386 M 224.500 281.878 C 222.142 282.382, 221.500 283.052, 221.500 285.010 C 221.500 287.492, 221.532 287.500, 231.169 287.500 C 236.487 287.500, 241.154 287.183, 241.539 286.797 C 241.925 286.410, 241.953 284.947, 241.601 283.547 C 240.991 281.117, 240.652 281.005, 234.231 281.118 C 230.529 281.183, 226.150 281.525, 224.500 281.878 M 296 288 L 296 291 312.413 291 L 328.826 291 327.694 288 L 326.562 285 311.281 285 L 296 285 296 288 M 277.522 286.964 C 276.163 289.164, 278.397 290, 285.632 290 C 292.250 290, 293.106 289.791, 292.810 288.250 C 292.533 286.811, 291.200 286.449, 285.318 286.214 C 281.144 286.047, 277.896 286.360, 277.522 286.964 M 222.250 290.662 C 221.563 290.940, 221 292.720, 221 294.620 L 221 298.072 230.750 297.786 C 240.071 297.513, 240.514 297.399, 240.827 295.195 C 241.416 291.040, 239.432 289.993, 231.128 290.079 C 226.932 290.122, 222.938 290.385, 222.250 290.662 M 245 293.853 C 245 294.323, 248.443 294.998, 252.651 295.353 C 263.722 296.289, 265 296.201, 265 294.500 C 265 293.267, 263.222 293, 255 293 C 249.500 293, 245 293.384, 245 293.853 M 277 295.500 C 277 297.991, 277.033 298, 286.500 298 C 295.967 298, 296 297.991, 296 295.500 C 296 293.009, 295.967 293, 286.500 293 C 277.033 293, 277 293.009, 277 295.500 M 297.638 293.777 C 297.284 294.350, 297.260 295.515, 297.587 296.365 C 298.083 297.658, 300.953 297.958, 315.187 298.205 C 324.541 298.367, 332.400 298.166, 332.651 297.758 C 333.492 296.393, 331.527 294.503, 329 294.244 C 318.637 293.183, 298.193 292.878, 297.638 293.777 M 227.750 299.715 C 217.190 300.592, 226.456 302.893, 237.872 302.228 C 240.258 302.089, 241.690 301.330, 240.917 300.614 C 240.094 299.853, 232.409 299.328, 227.750 299.715 M 299.244 301.250 C 299.515 302.075, 303.422 302.799, 310.743 303.380 C 322.677 304.326, 327 303.822, 327 301.481 C 327 300.243, 324.688 300, 312.917 300 C 302.098 300, 298.929 300.290, 299.244 301.250 M 245.755 303.500 C 246.206 305.856, 246.602 306, 252.617 306 C 258.213 306, 259 305.767, 259 304.107 C 259 301.691, 257.123 301, 250.557 301 C 245.465 301, 245.294 301.089, 245.755 303.500 M 267.335 301.695 C 262.959 302.548, 263.720 306.945, 268.250 306.985 C 269.531 306.996, 270 306.196, 270 304 C 270 302.350, 269.887 301.061, 269.750 301.136 C 269.613 301.211, 268.526 301.462, 267.335 301.695 M 223.105 305.085 C 221.787 305.612, 220.887 306.209, 221.105 306.412 C 221.322 306.615, 225.887 307.068, 231.250 307.418 C 239.306 307.944, 241 307.808, 241 306.634 C 241 305.853, 240.288 304.941, 239.418 304.607 C 236.997 303.678, 225.802 304.006, 223.105 305.085 M 298.423 305.300 C 297.640 305.740, 297 306.711, 297 307.460 C 297 308.519, 299.484 308.844, 308.250 308.929 C 322.738 309.069, 331 308.158, 331 306.420 C 331 305.393, 327.519 305.031, 315.423 304.799 C 306.856 304.635, 299.206 304.860, 298.423 305.300 M 277 311.040 L 277 314.081 285.250 313.790 C 293.425 313.503, 293.503 313.475, 293.816 310.750 L 294.133 308 285.566 308 L 277 308 277 311.040 M 223.750 309.689 C 222.787 309.941, 222 310.564, 222 311.073 C 222 311.583, 226.275 312, 231.500 312 C 240.277 312, 243.285 311.091, 239.418 309.607 C 237.643 308.926, 226.447 308.985, 223.750 309.689 M 244.460 311.125 C 243.420 314.403, 245.438 314.968, 258.250 314.985 C 269.926 315, 270 314.985, 270 312.647 C 270 310.437, 269.533 310.254, 262.349 309.647 C 248.398 308.467, 245.220 308.730, 244.460 311.125 M 296.750 310.577 C 296.337 310.993, 296 312.248, 296 313.367 C 296 314.838, 296.302 315.098, 297.094 314.306 C 297.695 313.705, 298.033 312.449, 297.844 311.517 C 297.655 310.584, 297.163 310.161, 296.750 310.577 M 301.227 310.758 C 299.071 311.476, 299.911 313.940, 302.537 314.599 C 307.225 315.775, 324.045 314.544, 325.041 312.951 C 325.642 311.989, 325.535 311.436, 324.724 311.310 C 321.733 310.845, 302.332 310.389, 301.227 310.758 M 230 314.688 C 221.859 315.302, 220.840 315.775, 221.187 318.780 C 221.429 320.877, 222.179 321.635, 224.500 322.127 C 229.554 323.199, 240.837 323.072, 241.540 321.935 C 241.902 321.349, 241.908 319.324, 241.554 317.435 C 240.850 313.683, 241.450 313.826, 230 314.688 M 312.215 316.748 C 297.961 317.055, 297.927 317.061, 296.965 319.593 C 296.434 320.988, 296 322.551, 296 323.065 C 296 323.583, 300.491 324, 306.071 324 C 313.690 324, 316.508 323.635, 317.643 322.500 C 318.602 321.541, 321.070 321, 324.490 321 C 331.123 321, 333 320.315, 333 317.893 C 333 316.379, 332.350 316.044, 329.750 316.220 C 327.962 316.341, 320.072 316.579, 312.215 316.748 M 278.750 317.689 C 274.448 318.813, 277.690 320, 285.063 320 C 292.751 320, 293.111 320.100, 292.813 322.157 C 292.641 323.343, 292.960 324.472, 293.523 324.665 C 294.108 324.865, 294.545 323.300, 294.545 321.008 L 294.545 317 287.523 317.116 C 283.660 317.180, 279.712 317.438, 278.750 317.689 M 257.667 318.667 C 257.300 319.033, 257 321.094, 257 323.246 L 257 327.159 250.500 326.463 C 245.104 325.885, 244 326.019, 244 327.253 C 244 329.153, 248.878 329.975, 260.250 329.989 C 268.862 330, 269 329.962, 269 327.560 C 269 325.463, 268.474 325.077, 265.250 324.810 C 261.686 324.515, 260.455 323.015, 263.064 322.145 C 263.732 321.923, 264.015 322.167, 263.692 322.689 C 263.353 323.239, 264.346 323.456, 266.053 323.206 C 270.185 322.599, 270.064 319.463, 265.875 318.625 C 261.816 317.813, 258.503 317.830, 257.667 318.667 M 224.335 324.695 C 223.144 324.927, 221.954 325.677, 221.692 326.361 C 221.326 327.314, 223.358 327.519, 230.357 327.236 C 240.486 326.827, 242 326.540, 242 325.031 C 242 324.027, 229.025 323.780, 224.335 324.695 M 321.750 324.689 C 318.218 325.612, 320.160 326.737, 326.250 327.296 C 332.474 327.868, 334.832 327.155, 333.554 325.087 C 332.900 324.029, 325.262 323.771, 321.750 324.689 M 318.420 329.444 C 316.597 330.786, 316.591 330.892, 318.298 331.554 C 320.187 332.286, 327.749 331.585, 328.749 330.584 C 330.598 328.735, 320.846 327.659, 318.420 329.444 M 232 330 C 225.333 330.392, 223.500 330.824, 223.500 332 C 223.500 334.310, 240.771 334.759, 241.649 332.472 C 242.641 329.888, 241.008 329.470, 232 330 M 279 329.781 C 279 330.261, 280.350 330.455, 282 330.213 C 285.472 329.704, 286.154 331.624, 282.750 332.323 C 281.512 332.577, 283.200 332.721, 286.500 332.643 C 291.103 332.533, 292.500 332.151, 292.500 331 C 292.500 329.844, 290.952 329.432, 285.750 329.204 C 282.038 329.042, 279 329.301, 279 329.781 M 296 333.836 L 296 337.742 302.096 338.431 C 310.605 339.394, 334.177 338.034, 333.705 336.607 C 333.489 335.952, 330.027 335.382, 325.234 335.211 C 317.737 334.943, 317.105 334.755, 316.814 332.711 C 316.516 330.616, 315.962 330.485, 306.250 330.215 L 296 329.930 296 333.836 M 287.813 331.683 C 288.534 331.972, 289.397 331.936, 289.729 331.604 C 290.061 331.272, 289.471 331.036, 288.417 331.079 C 287.252 331.127, 287.015 331.364, 287.813 331.683 M 245.187 336.250 L 245.500 339.500 255.744 340.122 C 261.564 340.476, 266.638 341.284, 267.494 341.995 C 268.802 343.081, 269 342.572, 269 338.122 L 269 333 256.937 333 L 244.873 333 245.187 336.250 M 223.166 336.876 C 221.032 338.229, 224.239 339, 232 339 C 239.142 339, 242 338.398, 242 336.893 C 242 335.759, 224.953 335.743, 223.166 336.876 M 283.250 337.807 C 280.356 338.017, 279 338.575, 279 339.557 C 279 340.666, 280.504 341, 285.500 341 C 291.333 341, 292 341.205, 292 343 C 292 344.810, 291.333 345, 285 345 C 281 345, 278 345.429, 278 346 C 278 347.149, 281.690 347.278, 288.360 346.364 L 293 345.728 293 341.508 C 293 336.836, 293.589 337.059, 283.250 337.807 M 223.250 340.820 C 220.666 341.187, 220.235 343.492, 222.582 344.393 C 224.615 345.173, 236.813 345.157, 239.750 344.370 C 240.988 344.038, 242 343.177, 242 342.457 C 242 341.509, 239.720 341.058, 233.750 340.823 C 229.213 340.646, 224.488 340.644, 223.250 340.820 M 308 341.949 L 296.500 342.500 296.197 345.614 C 295.925 348.404, 296.225 348.795, 299.072 349.364 C 303.072 350.164, 309.388 350.162, 314.250 349.358 C 317.626 348.800, 318.008 348.427, 318.079 345.619 C 318.122 343.904, 318.385 343.063, 318.662 343.750 C 318.966 344.502, 321.024 344.995, 323.833 344.986 C 329.773 344.969, 332.720 344.173, 333.399 342.401 C 333.983 340.881, 331.305 340.834, 308 341.949 M 245 345 C 245 346.820, 245.667 347, 252.418 347 C 260.709 347, 263 346.436, 263 344.393 C 263 343.306, 261.026 343, 254 343 C 245.667 343, 245 343.148, 245 345 M 231.235 346.962 C 223.959 347.631, 221.188 348.877, 222.446 350.913 C 223.173 352.090, 233.806 352.389, 238.875 351.375 C 241.322 350.886, 242 350.235, 242 348.375 C 242 346.724, 241.467 346.045, 240.250 346.147 C 239.287 346.227, 235.231 346.594, 231.235 346.962 M 320 350.869 C 320 353.120, 315.977 353.973, 305.285 353.989 C 297.592 354.001, 296 355.026, 296 359.966 C 296 362.940, 297.486 363.216, 308.619 362.307 L 318.500 361.500 319.442 357.250 C 320.369 353.069, 320.453 353, 324.610 353 C 329.793 353, 332 352.221, 332 350.393 C 332 349.357, 330.462 349, 326 349 C 320.807 349, 320 349.251, 320 350.869 M 254.421 350.786 L 245 351.072 245 354.536 L 245 358 251.750 357.986 C 260.629 357.968, 262.929 357.257, 264.261 354.113 C 265.360 351.521, 265.374 351.532, 265.935 355.422 C 266.246 357.579, 267.046 359.523, 267.713 359.743 C 269.251 360.249, 270.413 355.781, 269.592 352.513 C 269.107 350.578, 268.398 350.078, 266.405 350.263 C 264.995 350.393, 259.602 350.629, 254.421 350.786 M 282.739 350.937 C 274.512 352.582, 277.138 355.209, 286.599 354.799 C 292.734 354.533, 293.500 354.278, 293.500 352.500 C 293.500 350.911, 292.781 350.468, 290 350.342 C 288.075 350.255, 284.808 350.523, 282.739 350.937 M 222.667 354.667 C 220.709 356.624, 222.777 357.169, 230.951 356.849 C 236.337 356.639, 240.400 356.002, 241.151 355.250 C 242.150 354.250, 240.493 354, 232.867 354 C 227.623 354, 223.033 354.300, 222.667 354.667 M 322.250 357.662 C 321.563 357.940, 321 358.804, 321 359.583 C 321 362.148, 333.875 360.875, 334.759 358.222 C 335.051 357.347, 333.512 357.022, 329.333 357.079 C 326.125 357.122, 322.938 357.385, 322.250 357.662 M 226.750 358.735 C 223.479 358.993, 222 359.554, 222 360.536 C 222 362.328, 224.547 362.915, 234 363.298 C 240.912 363.579, 240.735 363.618, 231.750 363.801 C 223.838 363.963, 222 364.283, 222 365.500 C 222 367.160, 228.776 367.541, 237.360 366.364 C 241.970 365.732, 242 365.703, 242 361.864 L 242 358 236.750 358.180 C 233.863 358.279, 229.363 358.529, 226.750 358.735 M 284.578 359 C 281.116 359.292, 278.485 360.019, 278.245 360.750 C 277.938 361.681, 279.897 362, 285.917 362 C 292.132 362, 294 361.680, 294 360.617 C 294 358.786, 291.729 358.396, 284.578 359 M 251.193 362.700 L 244.885 363.098 245.193 366.741 C 245.465 369.970, 245.898 370.488, 249 371.297 C 253.514 372.475, 265.524 371.640, 267.485 370.012 C 268.318 369.321, 269 367.460, 269 365.878 C 269 363.563, 268.560 362.998, 266.750 362.989 C 265.512 362.983, 262.925 362.826, 261 362.640 C 259.075 362.454, 254.662 362.481, 251.193 362.700 M 278 366 C 278 366.593, 281.667 367, 287 367 C 292.333 367, 296 366.593, 296 366 C 296 365.407, 292.333 365, 287 365 C 281.667 365, 278 365.407, 278 366 M 234 368.753 C 225.235 369.049, 222 369.660, 222 371.019 C 222 372.404, 241.695 372.302, 242.554 370.913 C 243.731 369.008, 241.693 368.493, 234 368.753 M 302.250 369.723 C 300.122 369.987, 299 370.673, 299 371.710 C 299 373.122, 300.955 373.215, 317.095 372.578 C 335.556 371.850, 338.410 371.473, 337.435 369.895 C 336.903 369.033, 308.913 368.897, 302.250 369.723 M 278 372 C 278 373.655, 278.667 374, 281.860 374 C 288.993 374, 295 372.795, 295 371.364 C 295 370.319, 293.012 370, 286.500 370 C 278.667 370, 278 370.157, 278 372 M 230.750 373.736 L 222 374.078 222 376.980 C 222 378.576, 222.351 380.099, 222.779 380.364 C 223.208 380.629, 227.821 380.318, 233.029 379.673 C 242.136 378.545, 242.500 378.405, 242.500 376.014 C 242.500 373.194, 242.854 373.263, 230.750 373.736 M 363 395 C 363 395.589, 366.520 396, 371.559 396 C 377.010 396, 379.894 395.637, 379.500 395 C 379.160 394.450, 375.309 394, 370.941 394 C 366.314 394, 363 394.417, 363 395 M 180 402.083 C 167.236 403.484, 149.599 406.229, 147.500 407.141 C 145.950 407.814, 146.175 407.905, 148.500 407.545 C 150.150 407.289, 161.175 406.106, 173 404.916 C 184.825 403.727, 195.175 402.373, 196 401.907 C 197.860 400.857, 190.417 400.939, 180 402.083 M 368 401.706 C 361.941 403.921, 360.183 410.776, 364.413 415.694 C 366.515 418.137, 367.539 418.500, 372.340 418.500 C 376.376 418.500, 378.610 417.938, 380.677 416.401 C 383.830 414.057, 384.846 409.449, 382.979 405.962 C 381.006 402.275, 372.812 399.947, 368 401.706 M 346.810 410.540 C 340.231 414.112, 333.166 414.989, 282 418.584 C 259.582 420.158, 248.775 421.902, 261.014 421.970 C 273.284 422.037, 314.567 424.140, 330.800 425.525 C 354.444 427.541, 352.958 427.663, 352.466 423.750 C 352.241 421.962, 351.787 417.913, 351.457 414.750 C 351.126 411.587, 350.551 409.018, 350.178 409.040 C 349.805 409.062, 348.290 409.737, 346.810 410.540 M 161.625 425.107 C 153.443 425.553, 146.506 426.161, 146.208 426.459 C 145.910 426.756, 157.442 427, 171.833 427 C 194.426 427, 198 426.795, 198 425.500 C 198 423.783, 187.930 423.674, 161.625 425.107" stroke="none" fill="black" fill-rule="evenodd"/>
</svg>